<?xml version="1.0" encoding="utf-8"?>
<!-- Generator: Adobe Illustrator 23.0.1, SVG Export Plug-In . SVG Version: 6.00 Build 0)  -->
<svg version="1.1" id="Layer_1" xmlns="http://www.w3.org/2000/svg" xmlns:xlink="http://www.w3.org/1999/xlink" x="0px" y="0px"
	 viewBox="0 0 80 60" style="enable-background:new 0 0 80 60;" xml:space="preserve">
<style type="text/css">
	.st0{fill:#0071BC;}
	.st1{fill:#FF0000;}
</style>
<g>
	<g>
		<g>
			<path class="st0" d="M15.02,38.36h-2.58v-1.39c2.34,0,4.33,0,6.69,0v1.39h-2.58v6.73h-1.53V38.36z"/>
			<path class="st0" d="M25.6,45.11v-3.29H21.6v3.29h-1.53v-8.13h1.53v3.42h3.99v-3.42h1.52v8.13H25.6z"/>
			<path class="st0" d="M34.61,45.1h-6.08c0-2.7,0-5.42,0-8.13h6.08v1.49h-4.56v1.87h4.4v1.43h-4.4v1.83h4.56V45.1z"/>
			<path class="st0" d="M45.29,40.96c0.03,2.05-1.22,4.13-4.06,4.13c-1,0-2.19,0-3.19,0v-8.13c1,0,2.19,0,3.19,0
				C44.01,36.97,45.26,38.96,45.29,40.96z M39.56,43.62h1.67c1.85,0,2.58-1.35,2.54-2.67c-0.03-1.27-0.78-2.53-2.54-2.53h-1.67
				V43.62z"/>
			<path class="st0" d="M52.07,43.56h-4.25l-0.7,1.53h-1.66l3.65-8.13h1.67l3.64,8.13h-1.67L52.07,43.56z M49.94,38.68l-1.51,3.46
				h3.02L49.94,38.68z"/>
			<path class="st0" d="M62.32,45.1h-1.82l-2.37-2.72h-1.47v2.72h-1.53v-8.14c1.29,0,2.58,0.01,3.87,0.01
				c1.92,0.01,2.93,1.29,2.93,2.69c0,1.11-0.51,2.24-2.05,2.55l2.46,2.77V45.1z M56.65,38.4V41h2.33c0.98,0,1.39-0.65,1.39-1.3
				s-0.43-1.3-1.39-1.3H56.65z"/>
			<path class="st0" d="M69,45.1h-6.08c0-2.7,0-5.42,0-8.13H69v1.49h-4.56v1.87h4.4v1.43h-4.4v1.83H69V45.1z"/>
		</g>
		<g>
			<g>
				<path class="st1" d="M27.87,48.94v-2.78h1.05c0.18,0,0.33,0.01,0.42,0.03c0.14,0.02,0.25,0.07,0.34,0.13
					c0.09,0.06,0.17,0.15,0.22,0.27C29.97,46.7,30,46.83,30,46.97c0,0.24-0.08,0.44-0.23,0.6c-0.15,0.16-0.42,0.25-0.82,0.25h-0.71
					v1.13H27.87z M28.24,47.48h0.72c0.24,0,0.41-0.04,0.51-0.13c0.1-0.09,0.15-0.21,0.15-0.37c0-0.12-0.03-0.22-0.09-0.3
					c-0.06-0.08-0.14-0.14-0.23-0.16c-0.06-0.02-0.18-0.02-0.34-0.02h-0.71V47.48z"/>
				<path class="st1" d="M31.23,48.94v-2.78h0.37v2.45h1.37v0.33H31.23z"/>
				<path class="st1" d="M33.87,48.94l1.07-2.78h0.4l1.14,2.78h-0.42l-0.32-0.84h-1.16l-0.31,0.84H33.87z M34.67,47.8h0.94
					l-0.29-0.77c-0.09-0.23-0.15-0.43-0.2-0.58c-0.04,0.18-0.09,0.36-0.15,0.53L34.67,47.8z"/>
				<path class="st1" d="M37.96,48.94v-2.45h-0.92v-0.33h2.2v0.33h-0.92v2.45H37.96z"/>
				<path class="st1" d="M40.42,48.94v-2.78h1.88v0.33h-1.51v0.86h1.3v0.33h-1.3v1.26H40.42z"/>
				<path class="st1" d="M43.44,47.59c0-0.46,0.12-0.82,0.37-1.08c0.25-0.26,0.57-0.39,0.96-0.39c0.26,0,0.49,0.06,0.69,0.18
					c0.21,0.12,0.36,0.29,0.47,0.51s0.16,0.47,0.16,0.75c0,0.28-0.06,0.53-0.17,0.76s-0.27,0.39-0.48,0.51
					c-0.21,0.11-0.43,0.17-0.68,0.17c-0.26,0-0.5-0.06-0.7-0.19c-0.21-0.13-0.36-0.3-0.47-0.52C43.49,48.06,43.44,47.83,43.44,47.59
					z M43.82,47.59c0,0.33,0.09,0.6,0.27,0.79c0.18,0.19,0.41,0.29,0.68,0.29c0.28,0,0.5-0.1,0.68-0.29s0.27-0.47,0.27-0.83
					c0-0.23-0.04-0.42-0.11-0.59c-0.08-0.17-0.19-0.3-0.34-0.39c-0.15-0.09-0.31-0.14-0.5-0.14c-0.26,0-0.48,0.09-0.67,0.27
					C43.91,46.88,43.82,47.17,43.82,47.59z"/>
				<path class="st1" d="M47.36,48.94v-2.78h1.23c0.25,0,0.44,0.02,0.57,0.07c0.13,0.05,0.23,0.14,0.31,0.26
					c0.08,0.13,0.12,0.27,0.12,0.42c0,0.2-0.06,0.36-0.19,0.5c-0.13,0.14-0.32,0.22-0.59,0.26c0.1,0.05,0.17,0.09,0.22,0.14
					c0.11,0.1,0.21,0.22,0.31,0.37l0.48,0.76h-0.46l-0.37-0.58c-0.11-0.17-0.2-0.29-0.27-0.38c-0.07-0.09-0.13-0.15-0.19-0.19
					c-0.05-0.04-0.11-0.06-0.17-0.07c-0.04-0.01-0.11-0.01-0.2-0.01h-0.43v1.23H47.36z M47.72,47.39h0.79c0.17,0,0.3-0.02,0.39-0.05
					c0.09-0.03,0.17-0.09,0.22-0.17s0.07-0.16,0.07-0.25c0-0.13-0.05-0.24-0.14-0.32s-0.25-0.13-0.45-0.13h-0.88V47.39z"/>
				<path class="st1" d="M50.92,48.94v-2.78h0.55l0.66,1.97c0.06,0.18,0.1,0.32,0.13,0.41c0.03-0.1,0.08-0.25,0.15-0.45l0.67-1.93
					h0.49v2.78h-0.35v-2.33l-0.81,2.33h-0.33l-0.8-2.37v2.37H50.92z"/>
			</g>
			<g>
				<rect x="12.45" y="47.27" class="st1" width="14.67" height="0.55"/>
			</g>
			<g>
				<rect x="54.33" y="47.27" class="st1" width="14.67" height="0.55"/>
			</g>
		</g>
	</g>
	<g>
		<g>
			<path class="st1" d="M38.46,8.14c0.26,0.22,0.47,0.5,0.7,0.76c1.44,1.6,3.08,3.06,5.01,4.03c-0.46-0.69-0.53-1.54-0.48-2.35
				c1.32,1.13,2.75,2.19,3.72,3.67c0.26,0.42,0.5,1.05,0.06,1.43c0.89,0.98,1.4,2.29,1.38,3.62c-0.01,0.23-0.01,0.46-0.03,0.69
				c-0.11,1.1-0.6,2.11-0.89,3.17l-0.04-0.07c-0.12-0.61,0.05-1.36-0.46-1.82c-0.93-1.11-1.55-2.54-1.47-4.01
				c-0.39,0.83-1.08,1.47-1.82,1.99c-0.76,0.56-1.62,0.97-2.48,1.36c-0.32,0.14-0.64,0.3-1,0.34c1.09-0.77,1.41-2.21,1.53-3.46
				c-0.15,0.64-0.63,1.12-1.16,1.48c-0.37,0.26-0.84,0.14-1.25,0.12c0.27-0.16,0.53-0.33,0.77-0.53c-1.43,0.21-2.88,0.64-3.99,1.61
				c-0.88,0.76-1.47,1.84-1.66,2.98c-0.03,0.13-0.03,0.26,0.02,0.39c-0.12,0.1-0.23,0.21-0.34,0.32c-0.85-0.97-0.95-2.31-1.06-3.54
				c-0.1-0.13-0.2-0.26-0.3-0.38c-0.35-0.45-0.68-0.93-1.04-1.38c0.34,0,0.67,0.01,1.01,0.03c-0.82-0.93-1.11-2.2-1.28-3.39
				c0.75,0.7,1.72,1.2,2.76,1.19c-1.25-0.58-2.3-1.6-2.83-2.88c-0.66-1.49-0.75-3.2-0.46-4.79c0.5,1.17,1.74,1.74,2.86,2.16
				c1.98,0.75,4.08,1.04,6.1,1.66C39.16,11.39,38.61,9.75,38.46,8.14z"/>
			<path class="st1" d="M35.86,26.19c-0.27-0.7-0.16-1.46-0.1-2.18c3.82,0.03,7.64,0.01,11.45,0c0.06,0.86,0.13,1.89-0.52,2.55
				c-0.2,0.26-0.54,0.2-0.82,0.2c-0.77-0.01-1.55,0.01-2.32-0.02c-0.52-0.7-0.9-1.55-0.81-2.43c-0.88-0.02-1.75,0-2.63-0.01
				c0.01,0.85-0.12,1.73-0.6,2.45c-0.94,0.04-1.89,0.02-2.84,0.02C36.32,26.81,36.02,26.5,35.86,26.19z"/>
			<path class="st1" d="M36.08,34.57c0.68-0.22,1.36-0.48,2.05-0.67c0,0.15,0,0.3,0,0.46c0.34,0.31,0.67,0.63,1.01,0.94
				c-0.89-0.01-1.77,0-2.66,0C36.35,35.05,36.22,34.81,36.08,34.57z"/>
			<path class="st1" d="M44.07,34.83c0.4-0.13,0.32-0.65,0.44-0.97c0.6,0.29,1.19,0.6,1.81,0.85c0.01,0.19,0.01,0.39,0.02,0.58
				c-1.08-0.01-2.15,0.03-3.23-0.01C43.4,35.05,43.75,34.98,44.07,34.83z"/>
		</g>
		<g>
			<path class="st0" d="M42.4,21.14c1.03-0.46,2.09-0.96,2.85-1.83c0.36,0.85,1,1.53,1.51,2.29c0.34,0.52,0.48,1.13,0.55,1.74
				c-1.45,0.04-2.91-0.07-4.37-0.1c-0.53,0.06-1.03,0.32-1.58,0.27c-0.48,0.02-0.88-0.31-1.36-0.28c-1.36,0-2.72,0.02-4.08-0.01
				c0.31-1.02,0.86-2.02,1.78-2.6c0.72-0.46,1.59-0.59,2.43-0.55c-0.81,0.82-1.67,1.59-2.51,2.39C39.26,22.2,40.87,21.77,42.4,21.14
				z"/>
			<g>
				<path class="st0" d="M41.06,24.73c0.29,0,0.58,0,0.87,0c0.48,0.9,0.98,1.79,1.45,2.69c1.25-0.02,2.49-0.05,3.74-0.06
					c0-0.07,0.01-0.2,0.01-0.26c0.16,0,0.32,0,0.49,0c-0.14,1.15-0.84,2.15-1.76,2.83c-1.09,0.82-2.38,1.34-3.7,1.68
					c-0.26,0.06-0.53,0.14-0.81,0.1c-1.74-0.23-3.48-0.95-4.69-2.26c-0.6-0.67-1.13-1.45-1.34-2.34c0.24,0.02,0.62-0.06,0.56,0.31
					c1.26,0.01,2.52,0.02,3.78,0C40.12,26.51,40.59,25.62,41.06,24.73z M40.47,28.11c0.33,0.24,0.65,0.48,0.99,0.71
					c0.23-0.2,0.47-0.38,0.7-0.58c0.09-0.07,0.15-0.27-0.01-0.28c-0.28,0.09-0.47,0.34-0.69,0.52c-0.26-0.18-0.49-0.39-0.77-0.53
					C40.63,27.99,40.53,28.07,40.47,28.11z M40.37,30.2c0.53,0.01,1.07,0,1.6,0.01c0.08-0.13,0.16-0.26,0.25-0.38
					c-0.55-0.01-1.11-0.02-1.66,0.02C40.5,29.97,40.43,30.09,40.37,30.2z"/>
			</g>
			<path class="st0" d="M38.59,31.49c0.92,0.51,1.77,1.12,2.69,1.62c0.48,0.28,1.13,0.15,1.49-0.27c0.38-0.44,0.73-0.9,1.11-1.34
				c0.01,0.89-0.01,1.79,0.01,2.68c-0.96,0.75-2.23,1.18-3.45,0.94c-0.7-0.12-1.32-0.49-1.85-0.95
				C38.6,33.28,38.6,32.38,38.59,31.49z"/>
		</g>
		<g>
			<path class="st1" d="M48.85,19.3c1.25,1.28,1.71,3.26,1.09,4.95c0.22,0.46,0.39,0.99,0.22,1.49c-0.19,0.66-0.78,1.07-1.34,1.39
				c0-0.22-0.01-0.44-0.01-0.65c-0.27,0.32-0.62,0.55-0.97,0.78c-0.05-1.15,0.02-2.29-0.02-3.44c-0.01-0.25-0.03-0.5,0.08-0.74
				l0.04,0.07c0.32,0.32,0.63,0.65,0.89,1.02c0-0.41,0-0.83-0.01-1.24c0.28,0.26,0.54,0.53,0.78,0.82c0.37-1.3,0.06-2.72-0.77-3.77
				C48.83,19.76,48.84,19.53,48.85,19.3z"/>
			<path class="st1" d="M33.22,19.95c0.1,0.13,0.2,0.25,0.3,0.38c-0.95,1.15-1.21,2.77-0.71,4.17c0.3-0.45,0.66-0.86,1.07-1.21
				c0,0.52,0.01,1.05-0.02,1.57c0.21-0.35,0.44-0.7,0.72-0.99c0.11-0.11,0.22-0.22,0.34-0.32l0.14-0.13c0,1.38,0,2.77-0.01,4.15
				c-0.45-0.26-0.88-0.58-1.18-1.02c0,0.31,0,0.62-0.03,0.93c-0.58-0.34-1.2-0.78-1.34-1.48c-0.14-0.39,0.12-0.82-0.08-1.2
				C31.77,23.19,32.11,21.27,33.22,19.95z"/>
		</g>
	</g>
</g>
</svg>
